<svg width="137" height="134" viewBox="0 0 137 134" fill="none" xmlns="http://www.w3.org/2000/svg">
<path d="M68.5651 132C105.082 132 134.685 102.899 134.685 67C134.685 31.1015 105.082 2 68.5651 2C32.0481 2 2.44525 31.1015 2.44525 67C2.44525 102.899 32.0481 132 68.5651 132Z" stroke="#D9D9D9" stroke-width="3" stroke-miterlimit="10"/>
<path d="M56.5197 79.5237L52.8641 97.5498C52.6896 97.6096 52.5032 97.6256 52.3212 97.5963C52.1391 97.5671 51.9669 97.4935 51.8197 97.382C51.6724 97.2705 51.5546 97.1245 51.4764 96.9566C51.3982 96.7888 51.362 96.6043 51.3711 96.4192L44.9907 75.0866C45.0019 74.8689 44.9503 74.6525 44.8421 74.4635C44.734 74.2745 44.5739 74.1209 44.3811 74.0211L26.0189 68.1283C25.5765 67.899 25.2116 67.5433 24.9701 67.1059C24.7286 66.6685 24.6213 66.169 24.6618 65.6704C24.7022 65.1719 24.8886 64.6965 25.1974 64.3042C25.5062 63.9119 25.9237 63.6203 26.3971 63.4661L97.875 36.0555C98.0629 35.9942 98.2636 35.9834 98.457 36.0244C98.6504 36.0654 98.8297 36.1566 98.977 36.289C99.1243 36.4214 99.2345 36.5903 99.2966 36.7789C99.3587 36.9674 99.3704 37.1691 99.3307 37.3637L87.767 98.3652C87.6589 98.892 87.4244 99.3843 87.0838 99.7992C86.7433 100.214 86.3071 100.539 85.813 100.746C85.319 100.953 84.7822 101.035 84.2493 100.986C83.7164 100.937 83.2035 100.758 82.7552 100.464L56.8431 80.134C56.6988 80.0395 56.5779 79.913 56.4896 79.7643C56.4014 79.6156 56.3481 79.4485 56.334 79.276C56.3198 79.1034 56.3451 78.9298 56.4079 78.7686C56.4707 78.6073 56.5694 78.4627 56.6963 78.3456L87.0254 49.3319C87.0947 49.2741 87.1383 49.1911 87.1467 49.1011C87.1551 49.011 87.1276 48.9213 87.0702 48.8516C87.0128 48.782 86.9302 48.7381 86.8406 48.7297C86.751 48.7212 86.6617 48.7489 86.5924 48.8066L45.6775 73.9536" stroke="#D9D9D9" stroke-width="3" stroke-miterlimit="10" stroke-linecap="round"/>
<path d="M53.9279 97L65.032 87" stroke="#D9D9D9" stroke-width="3" stroke-miterlimit="10" stroke-linecap="round"/>
</svg>
