<svg width="135" height="134" viewBox="0 0 135 134" fill="none" xmlns="http://www.w3.org/2000/svg">
<circle cx="67.9153" cy="67" r="65.5" stroke="#D9D9D9" stroke-width="3"/>
<path d="M79.9153 83.7489L79.2314 82.4139L79.9153 83.7489ZM35.9187 79.1862L37.2501 79.8772L37.7884 78.8399L36.9142 78.0642L35.9187 79.1862ZM30.5371 89.5556L29.2057 88.8647L27.0467 93.0247L31.2199 90.8912L30.5371 89.5556ZM42.2786 83.553L42.9784 82.2262L42.2894 81.8628L41.5958 82.2174L42.2786 83.553ZM93.1936 62.638C93.1936 70.7096 87.8039 78.0225 79.2314 82.4139L80.5992 85.0839C89.855 80.3425 96.1936 72.1534 96.1936 62.638H93.1936ZM61.2854 38.7095C70.2124 38.7095 78.2383 41.4653 84.0001 45.8509C89.7607 50.2356 93.1936 56.1846 93.1936 62.638H96.1936C96.1936 55.0476 92.1479 48.2824 85.8171 43.4637C79.4874 38.646 70.8092 35.7095 61.2854 35.7095V38.7095ZM29.3772 62.638C29.3772 56.1846 32.8101 50.2356 38.5707 45.8509C44.3325 41.4653 52.3584 38.7095 61.2854 38.7095V35.7095C51.7616 35.7095 43.0834 38.646 36.7537 43.4637C30.4229 48.2824 26.3772 55.0476 26.3772 62.638H29.3772ZM36.9142 78.0642C32.1578 73.8441 29.3772 68.4494 29.3772 62.638H26.3772C26.3772 69.4657 29.654 75.6332 34.9232 80.3083L36.9142 78.0642ZM31.8685 90.2466L37.2501 79.8772L34.5873 78.4953L29.2057 88.8647L31.8685 90.2466ZM41.5958 82.2174L29.8543 88.2201L31.2199 90.8912L42.9614 84.8885L41.5958 82.2174ZM61.2854 86.5666C54.4565 86.5666 48.1485 84.9533 42.9784 82.2262L41.5788 84.8797C47.1997 87.8446 53.9912 89.5666 61.2854 89.5666V86.5666ZM79.2314 82.4139C74.1297 85.0273 67.9558 86.5666 61.2854 86.5666V89.5666C68.4108 89.5666 75.0562 87.9234 80.5992 85.0839L79.2314 82.4139Z" fill="#D9D9D9"/>
<path d="M91.3953 93.1523C80.5246 93.1523 71.7121 86.4881 71.7121 78.2673C71.7121 70.0466 80.5246 63.3823 91.3953 63.3823C102.266 63.3823 111.078 70.0466 111.078 78.2673C111.078 81.9666 109.294 85.3507 106.341 87.9542L109.511 94.0242L102.593 90.5103C99.4145 92.1762 95.5557 93.1523 91.3953 93.1523Z" fill="#EFEFEF" stroke="#D9D9D9" stroke-width="3"/>
<circle cx="47.8796" cy="61.8932" r="2.76628" fill="#D9D9D9"/>
<circle cx="82.5644" cy="78.7041" r="2.12791" fill="#D9D9D9"/>
<circle cx="60.2214" cy="61.8932" r="2.76628" fill="#D9D9D9"/>
<circle cx="92.1401" cy="78.7041" r="2.12791" fill="#D9D9D9"/>
<circle cx="72.5633" cy="61.8932" r="2.76628" fill="#D9D9D9"/>
<circle cx="101.716" cy="78.7041" r="2.12791" fill="#D9D9D9"/>
</svg>
